<svg width="48" height="48" viewBox="0 0 48 48" fill="none" xmlns="http://www.w3.org/2000/svg">
<rect width="48" height="48" rx="24" fill="#F7F4EC"/>
<path fill-rule="evenodd" clip-rule="evenodd" d="M24.2079 11.6477C24.7187 12.0053 24.8429 12.7094 24.4852 13.2202L17.2957 23.4879C16.938 23.9986 16.234 24.1228 15.7232 23.7651C15.2124 23.4075 15.0883 22.7034 15.446 22.1927L22.6355 11.925C22.9931 11.4142 23.6972 11.29 24.2079 11.6477Z" fill="black"/>
<path fill-rule="evenodd" clip-rule="evenodd" d="M32.1113 11.6477C32.6221 12.0053 32.7462 12.7094 32.3885 13.2202L25.199 23.4879C24.8414 23.9986 24.1373 24.1228 23.6265 23.7651C23.1158 23.4075 22.9916 22.7034 23.3493 22.1927L30.5388 11.925C30.8965 11.4142 31.6005 11.29 32.1113 11.6477Z" fill="black"/>
<path fill-rule="evenodd" clip-rule="evenodd" d="M32.3252 38.2881C31.8413 38.6813 31.1302 38.6077 30.737 38.1238L23.3981 29.0913C23.0049 28.6074 23.0784 27.8963 23.5624 27.5031C24.0463 27.1099 24.7574 27.1834 25.1506 27.6674L32.4895 36.6998C32.8828 37.1838 32.8092 37.8949 32.3252 38.2881Z" fill="black"/>
<path fill-rule="evenodd" clip-rule="evenodd" d="M25.4033 28.3793C25.4033 29.0029 24.8978 29.5084 24.2743 29.5084H16.3709C15.7473 29.5084 15.2418 29.0029 15.2418 28.3793C15.2418 27.7557 15.7473 27.2503 16.3709 27.2503H24.2743C24.8978 27.2503 25.4033 27.7557 25.4033 28.3793Z" fill="black"/>
</svg>
