<svg width="16" height="24" viewBox="0 0 16 24" fill="none" xmlns="http://www.w3.org/2000/svg">
<path fillRule="evenodd" clipRule="evenodd" d="M8.17811 0.554984C8.61593 0.861549 8.72234 1.46499 8.41577 1.90281L2.25333 10.7037C1.94676 11.1415 1.34332 11.2479 0.905496 10.9414C0.467676 10.6348 0.361272 10.0313 0.667838 9.59353L6.83028 0.792642C7.13685 0.354822 7.74029 0.248418 8.17811 0.554984Z" fill="black"/>
<path fillRule="evenodd" clipRule="evenodd" d="M14.9523 0.554984C15.3901 0.861549 15.4965 1.46499 15.19 1.90281L9.02754 10.7037C8.72097 11.1415 8.11753 11.2479 7.67971 10.9414C7.24189 10.6348 7.13549 10.0313 7.44205 9.59353L13.6045 0.792642C13.9111 0.354822 14.5145 0.248418 14.9523 0.554984Z" fill="black"/>
<path fillRule="evenodd" clipRule="evenodd" d="M15.1357 23.3896C14.7209 23.7267 14.1114 23.6636 13.7744 23.2488L7.48386 15.5067C7.14682 15.0919 7.20987 14.4824 7.62468 14.1453C8.0395 13.8083 8.649 13.8714 8.98604 14.2862L15.2765 22.0283C15.6136 22.4431 15.5505 23.0526 15.1357 23.3896Z" fill="black"/>
<path fillRule="evenodd" clipRule="evenodd" d="M9.20276 14.8964C9.20276 15.4309 8.76947 15.8642 8.23499 15.8642H1.46066C0.926184 15.8642 0.492902 15.4309 0.492902 14.8964C0.492902 14.3619 0.926184 13.9287 1.46066 13.9287H8.23499C8.76947 13.9287 9.20276 14.3619 9.20276 14.8964Z" fill="black"/>
</svg>
